<?xml version="1.0" standalone="no"?>
<!DOCTYPE svg PUBLIC "-//W3C//DTD SVG 20010904//EN"
 "http://www.w3.org/TR/2001/REC-SVG-20010904/DTD/svg10.dtd">
<svg version="1.0" xmlns="http://www.w3.org/2000/svg"
 width="260.000000pt" height="260.000000pt" viewBox="0 0 260.000000 260.000000"
 preserveAspectRatio="xMidYMid meet">
<metadata>
Created by potrace 1.11, written by Peter Selinger 2001-2013
</metadata>
<g transform="translate(0.000000,260.000000) scale(0.100000,-0.100000)"
fill="#000000" stroke="none">
<path d="M1220 1913 c-126 -21 -274 -104 -363 -203 -170 -189 -225 -480 -135
-710 76 -195 263 -358 459 -401 117 -25 386 2 534 54 53 18 68 47 100 187 25
108 25 115 9 127 -10 7 -32 13 -48 13 -29 0 -33 -5 -59 -69 -34 -83 -88 -140
-167 -179 -48 -24 -67 -27 -150 -27 -84 0 -102 3 -152 28 -159 78 -258 291
-258 557 0 183 44 337 120 424 114 129 403 116 534 -24 24 -26 56 -71 71 -99
25 -50 27 -52 63 -49 27 2 38 8 41 23 7 38 -21 276 -35 289 -13 14 -130 38
-264 56 -74 9 -251 11 -300 3z"/>
</g>
</svg>
